PathFileType	4	(X/Y/Z)	46_2_19_p1_0-865.trc
DataRate	CameraRate	NumFrames	NumMarkers	Units	OrigDataRate	OrigDataStartFrame	OrigNumFrames
59.0	59.0	5	27	m	59.0	0	866
Frame#	Time	RHip			RKnee			RAnkle			RBigToe			RSmallToe			RHeel			LHip			LKnee			LAnkle			LBigToe			LSmallToe			LHeel			Neck			Head			Nose			RShoulder			RElbow			RWrist			RThumb			RIndex			RPinky			LShoulder			LElbow			LWrist			LThumb			LIndex			LPinky			
		X1	Y1	Z1	X2	Y2	Z2	X3	Y3	Z3	X4	Y4	Z4	X5	Y5	Z5	X6	Y6	Z6	X7	Y7	Z7	X8	Y8	Z8	X9	Y9	Z9	X10	Y10	Z10	X11	Y11	Z11	X12	Y12	Z12	X13	Y13	Z13	X14	Y14	Z14	X15	Y15	Z15	X16	Y16	Z16	X17	Y17	Z17	X18	Y18	Z18	X19	Y19	Z19	X20	Y20	Z20	X21	Y21	Z21	X22	Y22	Z22	X23	Y23	Z23	X24	Y24	Z24	X25	Y25	Z25	X26	Y26	Z26	X27	Y27	Z27	
0	0.0	0.36156538763406065	0.41585873063575207	0.6540317152223066	0.3706989080896227	0.4574333857569895	1.1050523284913754	0.3574717824518434	0.5078806968625066	1.5318383255706431	0.3590367223664226	0.3785781124902359	1.538102136302942	0.4172786988388585	0.39987489995804965	1.53558088796857	0.32724062275136967	0.5719338273606347	1.5911518594762175	0.1507706935581393	0.41268328599099824	0.6812142637736671	0.15000666314524225	0.4530513589611636	1.0959161376408328	0.1480606204160131	0.5059982807800212	1.5206795102250905	0.19019372085762817	0.33919045769124845	1.5170266795224643	0.12955689661675052	0.37077615001653413	1.5212822418935912	0.14013406136359735	0.5740475585244327	1.5745135652380797	0.2750124513831707	0.39924133189879735	0.14580734545925197	0.292702627667417	0.34406468216723596	-0.10641598024197763	0.27686820188778993	0.2797372239294385	0.02903902516302098	0.41477328681161263	0.3781668133173641	0.22931979554122744	0.4812619755696329	0.32255193016011063	0.4663901947606115	0.34470980501738935	0.25090434521477006	0.6620160070909431	0.2492321206010326	0.31433736966152687	0.784340256125887	0.248966245146022	0.31409397062257555	0.7851137089484886	0.2749526183094488	0.25062690994593717	0.767136435390392	0.1247020365614756	0.3471429552789716	0.216216639447081	0.08586702401591087	0.3128275233532861	0.4635588193066924	0.19489937744048527	0.234913329421303	0.6623951149520554	0.29510235027722814	0.2593026539779632	0.7300136645787396	0.2946658947377134	0.25516521850009305	0.7558338813244455	0.2518043116514714	0.20909988004416036	0.7661710428993553
1	0.01694915254237288	0.3651602234340953	0.3885744473673842	0.6425794532914308	0.3703798185355118	0.4540235270514191	1.1034663819364556	0.36448505283974475	0.49223485349916607	1.5177708516109312	0.36042553051059467	0.3778703659291036	1.5330889392650244	0.4228684593467487	0.38400180411588547	1.5258503305893316	0.3272313371915685	0.5722898532431911	1.5907780728712342	0.15092316878837364	0.41011225814379926	0.6715252622263258	0.1489075554472181	0.44907507793390594	1.0850444468523268	0.14638542182238995	0.5036500830702988	1.5190530714074952	0.19528805232776494	0.32602761466614966	1.5128229457896725	0.13512668480372889	0.357362954838048	1.5166474705490298	0.1482014117982343	0.5560496504380719	1.5688197873516063	0.27527946961252925	0.4003676967691183	0.1496881157198828	0.29280262425053605	0.34403665746847734	-0.10631437209332728	0.27982828872716786	0.2582219237052341	0.024620890629432263	0.4144752412824762	0.3785912172425206	0.22584042336759358	0.4810430232698886	0.3234795129359134	0.46287503133392804	0.34886088108696695	0.27438314723348667	0.6685236023980191	0.24697959997167118	0.3016814178317114	0.776551140012056	0.24740576560677913	0.3030715430691038	0.7812328904022366	0.27500792496420584	0.2519674313022356	0.7631206852502905	0.12465509471185958	0.3475697372208872	0.21255615013640247	0.08577302461201088	0.31267094779708215	0.46335785810062113	0.194367678291304	0.23514233108942445	0.6655739666351803	0.2880543161250276	0.25887788908090437	0.7337944027926353	0.29134365234764237	0.25682957803320167	0.761858590815514	0.2544696094620592	0.23869331829294083	0.7713024236683386
2	0.03389830508474576	0.3651514749181143	0.38872466241307885	0.6426643051271821	0.3704465636506732	0.454377240677842	1.1036725536789016	0.36449044985088813	0.4924525066311692	1.5177974430237477	0.3602693605775547	0.37793732632532634	1.5331464683045049	0.4172465723675321	0.3989647595288857	1.5349269504513394	0.3207224303319871	0.5892397415554137	1.6002487391410618	0.15086959946624282	0.4102026036141766	0.6714920725344186	0.14894373217013188	0.44908103770817986	1.0849979290307887	0.14697359397888388	0.5057947876609998	1.5251505911170922	0.19035743129960822	0.3386246706720151	1.5168009262200315	0.12973235233263894	0.3697132353990782	1.520590088338254	0.14811599435545686	0.5562901894359354	1.5690379871786047	0.27336993632103074	0.38778902904875207	0.15197016906323646	0.2928039896467493	0.34405729244203054	-0.10629469285506002	0.28566213244070165	0.2706986735140144	0.028591221608904996	0.4144738712136768	0.3786235585521945	0.22580647818476662	0.48104166135967646	0.3236236930885891	0.46283561222217173	0.3457071895212345	0.29922469861530093	0.6759280223246064	0.24080274073762237	0.3150955730728003	0.7815968549659633	0.24738581903736687	0.3030135598435224	0.7812823932249328	0.2770147504421411	0.26174331072132606	0.7663262377019933	0.1246597515749855	0.34701504585606946	0.21613264516673011	0.08472120524032543	0.30022036637165045	0.46097614925492797	0.19482913029447982	0.23549245665393814	0.6624771674896468	0.2813884864717574	0.27064238347846264	0.7404290841440898	0.2816043446769247	0.2669584512190612	0.7608535966996771	0.2571757407034451	0.2626067784894134	0.7747921845717762
3	0.05084745762711865	0.364667745381125	0.388625741035656	0.646514223600427	0.37040348620361463	0.4544824562488543	1.1037115726139046	0.3586335320810046	0.5078694540977543	1.526697412417245	0.36031415027315666	0.3779777924358521	1.5335610283774272	0.4149968100914838	0.38739261696313565	1.5332849186992614	0.3241138208257909	0.6035243054715936	1.6118286420675394	0.15131691796800986	0.41186663343533375	0.676481817587393	0.14943568575675126	0.45100205529719206	1.0902766997887985	0.1423332950593377	0.5013698691542875	1.5182175754889173	0.1884856702056242	0.32306393339462003	1.5034904771575632	0.12953995703185714	0.36968319192487165	1.5205248022379758	0.14816890728367796	0.5561830818887006	1.5690026355250088	0.2733467804979505	0.3877872677933644	0.1519519209519956	0.2948690856203758	0.3554052112163718	-0.10622089586924657	0.2856806086911131	0.270683604760319	0.02863344294382714	0.4144368056680036	0.37857539691848124	0.22580046744843554	0.48060997820816076	0.3223620888135031	0.4585108925577971	0.3455740769019773	0.29959075860153933	0.676065470828658	0.24271599742646754	0.3268262576639858	0.7853691528350064	0.24922869874672993	0.3146755780643724	0.7849356409886871	0.2772677190621275	0.2625542979234735	0.7667311182858653	0.12447025585798766	0.34763040366929254	0.2126583086527453	0.08467846688936771	0.30043475838765715	0.46100608769786483	0.19874241287389194	0.23735733408889875	0.6627035744610336	0.2814462838981515	0.27060199071341023	0.7406128211102397	0.28403234012247164	0.280332753586024	0.7699565967919721	0.2586528413009748	0.27592916974411313	0.7790410631444569
4	0.06779661016949153	0.3651504186276728	0.3886940595177685	0.6426582111706893	0.37471923504393845	0.4569144936709978	1.1044358771334177	0.3573945746035622	0.5078906879318128	1.531677563356446	0.3589289069386992	0.378318927600177	1.5378509723174112	0.4144772792354059	0.3861359674870106	1.527923677559825	0.32723136281990234	0.5723904394007184	1.5912126643615385	0.15131080530058214	0.40964349834381797	0.6757877704820919	0.14949114845094333	0.4508943333180922	1.0901544107160461	0.14750510167742345	0.5035063878578775	1.5141915275633846	0.18960408049146774	0.3227361130501612	1.4993726209331204	0.1295799252909807	0.3699716538311925	1.5206243009655203	0.1481018346095497	0.5564013302736861	1.5689480107577944	0.2730562579770712	0.3866916921094343	0.14831156865722844	0.2977936850666679	0.33214236567559163	-0.10664352976187215	0.28579477076061194	0.2705737150439266	0.028575002200269907	0.4146707256684267	0.3781323381034294	0.2292872555252454	0.47653125271072394	0.3353961742125477	0.46915442104444205	0.34035759534266025	0.31318217760920974	0.6804655012253347	0.2424092905508919	0.32720205519280243	0.785564725171475	0.24851418270827133	0.31485323013116007	0.7888362376823603	0.27736240141496504	0.26233548028076337	0.7668707722954454	0.12451691482355015	0.3470800855159374	0.21622153866243973	0.0846450276810166	0.3007991258586724	0.4612453055319185	0.1987438143205645	0.23763147312346003	0.6626910689007919	0.2842696906121136	0.2718346952679771	0.7402009776358778	0.28574819912865024	0.2687009084749724	0.7661086354690603	0.2531163847335232	0.2885506031521257	0.7833210460699636
